# xmcd
#
# Track frame offsets: 
#        150
#        22367
#        38420
#        55165
#        70340
#        92555
#        108201
#        121317
#        134858
#        155210
#        174643
#
# Disc length: 2527 seconds
#
# Revision: 0
# Processed by: cddbd v1.5.2PL0 Copyright (c) Steve Scherf et al.
# Submitted via: ExactAudioCopy v1.3
#
DISCID=9c09dd0b
DTITLE=Billy Sheets - Good Man in a World Gone Wrong
DYEAR=2019
DGENRE=Blues
TTITLE0=Rid Your Home of Hoo Doo
TTITLE1=Fortune Tellin' Man
TTITLE2=If Time Were Money 
TTITLE3=Don't Make Me Pay for His Mistakes
TTITLE4=Safecracker
TTITLE5=Case of Love
TTITLE6=Move Out
TTITLE7=Lord Don't Move the Mountain
TTITLE8=Good Man (In a World Gone Wrong)
TTITLE9=Morning Breeze
TTITLE10=Don't Look Back
EXTD=
EXTT0=
EXTT1=
EXTT2=
EXTT3=
EXTT4=
EXTT5=
EXTT6=
EXTT7=
EXTT8=
EXTT9=
EXTT10=
PLAYORDER=
